<svg width="1513" height="833" viewBox="0 0 1513 833" fill="none" xmlns="http://www.w3.org/2000/svg">
<path stroke="#312442" stroke-width="1" d="M-84.4576 804.193L-67.2076 780.693L-63.9576 793.693L-49.7076 712.193L-44.9576 702.193L-29.4576 622.693L-33.4576 620.943L-25.9576 599.443L-24.2076 597.693L-18.2076 569.693L-10.2076 545.193L-2.45764 541.943L8.04236 511.693L9.79236 510.193L15.2924 481.693L27.0424 448.693L31.0424 445.693L82.2924 441.693L89.7924 443.443L92.0424 436.193L101.542 415.693L107.292 412.943L108.542 402.693L119.792 378.443L125.292 376.443L127.042 364.193L139.542 336.943L145.042 333.193L152.292 293.443L170.292 250.693L176.542 249.193L247.542 269.193L249.542 272.943L244.292 304.443L263.042 310.193L265.792 297.193L269.292 293.443L313.792 306.443L312.042 322.443L331.042 329.193V317.943L336.042 312.693L378.792 324.193L377.542 340.443L394.292 344.693L396.042 334.193L399.542 330.443L454.792 344.693L458.042 347.443L453.042 367.193L458.042 384.943L454.792 389.943V394.693L596.792 432.193L592.292 425.693L610.792 386.443L625.292 428.943L620.792 432.193V437.443L744.792 469.193L741.292 462.943L757.042 425.693L771.792 465.693L768.042 469.193V474.943L876.292 502.193L873.042 496.943L888.792 462.943L902.792 499.193L898.542 502.193V507.943L994.792 531.943L992.792 526.193L1006.54 494.443L1009.79 502.193L991.792 119.943L1012.29 102.943L1025.79 107.443L1023.67 110.693V116.443L1036.79 106.318L1044.17 111.693L1044.92 119.318L1047.17 118.443V108.943L1042.79 104.693L1078.92 74.1925L1087.17 80.1925V86.4425L1089.29 85.0675V74.9425L1085.54 71.0675L1104.42 54.6925L1102.42 30.6925L1098.79 28.1925L1130.04 4.1925L1160.92 19.9425L1157.54 22.8175L1159.79 47.6925L1177.54 58.0675L1173.54 63.3175L1174.42 68.3175L1181.67 61.0675L1194.79 66.9425L1194.17 51.6925L1192.04 50.5675V46.0675L1193.17 44.5675L1190.42 41.5675L1186.92 40.8175L1187.54 31.0675H1192.04L1193.17 28.0675L1190.42 23.6925L1197.92 19.0675L1203.92 22.8175V26.9425L1206.29 29.1925H1208.92V39.3175L1203.92 40.8175V42.9425L1207.04 44.5675V48.5675L1204.79 50.5675L1207.04 72.8175L1216.17 77.3175L1215.42 59.6925L1213.29 58.0675L1214.04 50.5675L1216.67 48.5675L1214.04 46.0675L1215.42 40.8175L1226.79 33.0675L1231.54 36.4425V33.9425L1228.79 31.0675L1236.29 25.6925L1246.29 24.5675L1248.17 37.6925L1254.04 37.0675V23.6925L1264.42 22.1925L1271.42 25.6925L1270.29 29.1925V33.0675L1274.54 28.0675L1282.92 31.8175V37.6925L1281.42 39.3175L1282.92 51.4425L1284.92 53.1925L1284.04 58.9425L1289.04 61.5675L1287.42 73.3175L1290.54 96.5675L1294.67 98.9425V102.443L1292.67 103.818L1297.17 133.068L1299.92 134.943V139.693L1298.42 141.193L1301.54 164.318L1303.17 166.068V170.443L1306.42 172.443L1303.17 189.568L1374.54 744.568L1380.17 747.068L1376.04 753.568L1377.04 762.068L1440.04 775.443L1522.79 762.318L1609.92 780.068L1635.67 776.193V1086.19L1513.79 1083.94L1511.54 1047.94H1448.04L1446.79 1032.94L1437.29 1024.94L1418.79 890.693L1424.54 886.193L1416.79 880.943L1411.54 845.943L1402.79 839.193L1368.04 834.193L1357.79 839.193L1252.04 829.693L1249.29 820.943L1240.54 815.193L1207.79 810.943L1149.54 820.943L1139.54 831.943L1149.54 977.193L1156.54 982.693L1154.79 988.193L1157.79 1015.94L1152.04 1024.44L1156.54 1071.94L20.7924 1082.94L-31.2076 1076.94L-88.2076 1073.44M1597.41 802.381L1580.16 778.881L1576.91 791.881L1562.66 710.381L1557.91 700.381L1542.41 620.881L1546.41 619.131L1538.91 597.631L1537.16 595.881L1531.16 567.881L1523.16 543.381L1515.41 540.131L1504.91 509.881L1503.16 508.381L1497.66 479.881L1485.91 446.881L1481.91 443.881L1430.66 439.881L1423.16 441.631L1420.91 434.381L1411.41 413.881L1405.66 411.131L1404.41 400.881L1393.16 376.631L1387.66 374.631L1385.91 362.381L1373.41 335.131L1367.91 331.381L1360.66 291.631L1342.66 248.881L1336.41 247.381L1265.41 267.381L1263.41 271.131L1268.66 302.631L1249.91 308.381L1247.16 295.381L1243.66 291.631L1199.16 304.631L1200.91 320.631L1181.91 327.381V316.131L1176.91 310.881L1134.16 322.381L1135.41 338.631L1118.66 342.881L1116.91 332.381L1113.41 328.631L1058.16 342.881L1054.91 345.631L1059.91 365.381L1054.91 383.131L1058.16 388.131V392.881L916.163 430.381L920.663 423.881L902.163 384.631L887.663 427.131L892.163 430.381V435.631L768.163 467.381L771.663 461.131L755.913 423.881L741.163 463.881L744.913 467.381V473.131L636.663 500.381L639.913 495.131L624.163 461.131L610.163 497.381L614.413 500.381V506.131L518.163 530.131L520.163 524.381L506.413 492.631L503.163 500.381L521.163 118.131L500.663 101.131L487.163 105.631L489.288 108.881V114.631L476.163 104.506L468.788 109.881L468.038 117.506L465.788 116.631V107.131L470.163 102.881L434.038 72.3812L425.788 78.3812V84.6312L423.663 83.2562V73.1312L427.413 69.2562L408.538 52.8812L410.538 28.8812L414.163 26.3812L382.913 2.38116L352.038 18.1312L355.413 21.0062L353.163 45.8812L335.413 56.2562L339.413 61.5062L338.538 66.5062L331.288 59.2562L318.163 65.1312L318.788 49.8812L320.913 48.7562V44.2562L319.788 42.7562L322.538 39.7562L326.038 39.0062L325.413 29.2562H320.913L319.788 26.2562L322.538 21.8812L315.038 17.2562L309.038 21.0062V25.1312L306.663 27.3812H304.038V37.5062L309.038 39.0062V41.1312L305.913 42.7562V46.7562L308.163 48.7562L305.913 71.0062L296.788 75.5062L297.538 57.8812L299.663 56.2562L298.913 48.7562L296.288 46.7562L298.913 44.2562L297.538 39.0062L286.163 31.2562L281.413 34.6312V32.1312L284.163 29.2562L276.663 23.8812L266.663 22.7562L264.788 35.8812L258.913 35.2562V21.8812L248.538 20.3812L241.538 23.8812L242.663 27.3812V31.2562L238.413 26.2562L230.038 30.0062V35.8812L231.538 37.5062L230.038 49.6312L228.038 51.3812L228.913 57.1312L223.913 59.7562L225.538 71.5062L222.413 94.7562L218.288 97.1312V100.631L220.288 102.006L215.788 131.256L213.038 133.131V137.881L214.538 139.381L211.413 162.506L209.788 164.256V168.631L206.538 170.631L209.788 187.756L138.413 742.756L132.788 745.256L136.913 751.756L135.913 760.256L72.913 773.631L-9.83704 760.506L-96.962 778.256L-122.712 774.381V1084.38L-0.837036 1082.13L1.41296 1046.13H64.913L66.163 1031.13L75.663 1023.13L94.163 888.881L88.413 884.381L96.163 879.131L101.413 844.131L110.163 837.381L144.913 832.381L155.163 837.381L260.913 827.881L263.663 819.131L272.413 813.381L305.163 809.131L363.413 819.131L373.413 830.131L363.413 975.381L356.413 980.881L358.163 986.381L355.163 1014.13L360.913 1022.63L356.413 1070.13L1492.16 1081.13L1544.16 1075.13L1601.16 1071.63"/>
</svg>
