<svg width="1730" height="1080" viewBox="0 0 1730 1080" fill="none" xmlns="http://www.w3.org/2000/svg">
<path fill-rule="evenodd" clip-rule="evenodd" d="M382.231 1.04497L383.075 0.614471L383.827 1.19151L415.077 25.1915L416.711 26.4464L415.015 27.616L411.974 29.713L410.096 52.2471L428.396 68.1231L429.592 69.1611L428.491 70.2993L425.163 73.7381V76.981L433.156 71.1681L434.107 70.4763L435.006 71.235L471.131 101.735L472.396 102.803L471.208 103.957L467.288 107.765V109.808L467.295 109.734L467.361 109.065L467.905 108.669L475.28 103.294L476.188 102.631L477.079 103.318L487.788 111.58V109.328L485.907 106.452L484.843 104.823L486.689 104.208L500.189 99.7081L500.979 99.4446L501.62 99.9765L522.12 116.977L522.697 117.454L522.661 118.202L509.04 407.467L593.245 429.704L591.059 426.546L590.567 425.835L590.936 425.053L609.436 385.803L611.015 382.451L612.212 385.958L626.712 428.458L627.07 429.509L626.171 430.159L622.292 432.959V436.278L741.773 466.871L741.341 466.099L740.139 464.978L739.411 464.298L739.756 463.362L739.776 463.306L739.625 463.035L739.911 462.358L741.592 458.381L754.506 423.362L755.818 419.804L756.861 422.271L757.138 421.615L758.45 425.174L760.917 431.863L773.045 460.547L773.331 461.223L772.972 461.864L772.373 462.933L772.987 464.598L890.663 434.467V431.148L886.785 428.347L885.885 427.697L886.243 426.647L900.743 384.147L901.94 380.64L903.52 383.992L922.02 423.242L922.389 424.024L921.896 424.735L919.71 427.893L1003.75 405.7L990.294 120.013L990.259 119.266L990.835 118.788L1011.33 101.788L1011.98 101.256L1012.77 101.519L1026.27 106.019L1028.11 106.635L1027.05 108.263L1025.17 111.139V113.391L1035.88 105.13L1036.77 104.443L1037.68 105.105L1045.05 110.48L1045.59 110.876L1045.66 111.546L1045.67 111.619V109.577L1041.75 105.768L1040.56 104.615L1041.82 103.546L1077.95 73.0464L1078.85 72.2876L1079.8 72.9794L1087.79 78.7923V75.5494L1084.46 72.1106L1083.36 70.9724L1084.56 69.9345L1102.86 54.0585L1100.98 31.5243L1097.94 29.4273L1096.24 28.2577L1097.88 27.0029L1129.13 3.00285L1129.88 2.42581L1130.72 2.85631L1161.6 18.6063L1163.6 19.6273L1161.89 21.0844L1159.11 23.4558L1161.22 46.7875L1178.3 56.7725L1179.76 57.628L1178.74 58.9766L1175.13 63.7049L1175.4 65.2161L1180.61 60.0068L1181.34 59.2763L1182.28 59.6984L1193.19 64.5838L1192.7 52.6149L1191.34 51.8932L1190.54 51.4706V50.5675V46.0675V45.5675L1190.84 45.1675L1191.22 44.6634L1189.64 42.9339L1186.6 42.2842L1185.34 42.013L1185.42 40.7215L1186.05 30.9715L1186.14 29.5675H1187.54H1191L1191.5 28.2365L1189.15 24.4908L1188.34 23.2099L1189.63 22.4157L1197.13 17.7907L1197.92 17.3019L1198.71 17.7955L1204.71 21.5455L1205.42 21.9861V22.8175V26.2973L1206.89 27.6925H1208.92H1210.42V29.1925V39.3175V40.4335L1209.35 40.7542L1205.42 41.9335V42.0318L1207.73 43.2367L1208.54 43.6568V44.5675V48.5675V49.2411L1208.04 49.6886L1206.36 51.1793L1208.45 71.8398L1214.56 74.8529L1213.95 60.4576L1212.38 59.259L1211.72 58.7508L1211.8 57.9182L1212.55 50.4182L1212.61 49.7695L1213.13 49.3744L1214.36 48.4405L1213.01 47.1537L1212.37 46.5435L1212.59 45.6875L1213.97 40.4375L1214.11 39.8941L1214.57 39.5779L1225.95 31.8279L1226.81 31.2402L1227.03 31.3988L1226.51 30.8552L1227.92 29.8483L1235.42 24.4733L1235.74 24.2456L1236.12 24.2019L1246.12 23.0769L1247.57 22.9141L1247.78 24.3554L1249.45 36.0478L1252.54 35.7186V23.6925V22.3938L1253.83 22.2079L1264.2 20.7079L1264.67 20.6407L1265.09 20.8509L1272.09 24.3509L1273.24 24.9264L1272.85 26.1515L1272.02 28.7184L1273.4 27.096L1274.13 26.2386L1275.16 26.6985L1283.53 30.4485L1284.42 30.8456V31.8175V37.6925V38.279L1284.02 38.7099L1282.99 39.8237L1284.34 50.6904L1285.91 52.0636L1286.52 52.6052L1286.4 53.4182L1285.69 58.1113L1289.74 60.2394L1290.67 60.7292L1290.53 61.773L1288.93 73.3205L1291.93 95.6359L1295.42 97.6426L1296.17 98.0753V98.9425V102.442V103.232L1295.52 103.679L1294.29 104.52L1298.55 132.195L1300.76 133.703L1301.42 134.15V134.943V139.693V140.314L1300.98 140.753L1300 141.728L1302.97 163.645L1304.27 165.047L1304.67 165.478V166.068V169.604L1307.2 171.165L1308.08 171.707L1307.89 172.722L1304.69 189.613L1312.77 252.483L1336.01 245.937L1336.38 245.831L1336.76 245.923L1343.01 247.423L1343.75 247.6L1344.05 248.299L1362.05 291.049L1362.11 291.2L1362.14 291.362L1369.28 330.495L1374.26 333.892L1374.6 334.127L1374.78 334.506L1387.28 361.756L1387.37 361.954L1387.4 362.169L1389.02 373.529L1393.68 375.221L1394.26 375.434L1394.52 376L1405.77 400.25L1405.87 400.465L1405.9 400.7L1407.05 410.133L1412.06 412.528L1412.55 412.761L1412.77 413.25L1422.27 433.75L1422.32 433.841L1422.35 433.937L1424.18 439.853L1430.32 438.42L1430.55 438.368L1430.78 438.386L1482.03 442.386L1482.46 442.42L1482.81 442.681L1486.81 445.681L1487.17 445.952L1487.33 446.378L1499.08 479.378L1499.11 479.485L1499.14 479.597L1504.54 507.583L1505.89 508.742L1506.2 509.006L1506.33 509.389L1516.61 539.007L1523.74 541.998L1524.38 542.263L1524.59 542.916L1532.59 567.416L1532.61 567.49L1532.63 567.567L1538.54 595.134L1539.97 596.57L1540.22 596.813L1540.33 597.137L1547.83 618.637L1548.29 619.949L1547.01 620.505L1544.12 621.774L1559.35 699.908L1564.02 709.738L1564.11 709.922L1564.14 710.123L1574.85 771.393L1609.96 778.545L1635.44 774.709L1637.17 774.45V776.192V1086.19V1087.72L1635.64 1087.69L1513.76 1085.44L1512.38 1085.42L1512.3 1084.04L1512.06 1080.34L1492.33 1082.62L1492.24 1082.63L1492.15 1082.63L849.985 1076.41L20.8069 1084.44L20.7133 1084.44L20.6204 1084.43L0.665955 1082.13L0.660034 1082.22L0.57373 1083.61L-0.809326 1083.63L-122.684 1085.88L-124.212 1085.91V1084.38V774.381V772.639L-122.489 772.898L-97.0013 776.733L-61.2413 769.448L-51.1852 711.934L-51.1501 711.733L-51.0626 711.549L-46.3937 701.72L-31.1599 623.585L-34.0589 622.317L-35.3315 621.76L-34.8739 620.448L-27.3739 598.948L-27.2609 598.624L-27.0183 598.382L-25.5815 596.945L-19.6743 569.378L-19.6579 569.301L-19.6336 569.227L-11.6336 544.727L-11.4205 544.075L-10.7877 543.809L-3.65516 540.818L6.62531 511.201L6.75827 510.818L7.06616 510.554L8.41873 509.394L13.8195 481.408L13.8411 481.297L13.8793 481.189L25.6293 448.189L25.7809 447.764L26.1424 447.492L30.1424 444.492L30.4911 444.231L30.9256 444.197L82.1756 440.197L82.4071 440.179L82.6332 440.232L88.7736 441.664L90.6098 435.748L90.6394 435.652L90.6814 435.562L100.181 415.062L100.408 414.572L100.895 414.339L105.903 411.944L107.053 402.511L107.082 402.276L107.182 402.061L118.432 377.811L118.694 377.246L119.28 377.033L123.935 375.34L125.557 363.98L125.588 363.765L125.679 363.567L138.179 336.317L138.353 335.938L138.697 335.703L143.679 332.306L150.817 293.173L150.846 293.012L150.91 292.86L168.91 250.11L169.204 249.411L169.942 249.234L176.192 247.734L176.573 247.643L176.949 247.749L199.735 254.167L208.27 187.801L205.064 170.911L204.872 169.895L205.752 169.354L208.288 167.793V164.256V163.667L208.689 163.235L209.99 161.834L212.952 139.917L211.977 138.942L211.538 138.502V137.881V133.131V132.338L212.193 131.892L214.405 130.384L218.662 102.709L217.438 101.867L216.788 101.42V100.631V97.1312V96.2639L217.54 95.8312L221.025 93.8246L224.024 71.5092L222.427 59.9616L222.283 58.9179L223.216 58.4281L227.269 56.3L226.555 51.6068L226.431 50.7938L227.05 50.2523L228.62 48.8791L229.964 38.0124L228.936 36.8986L228.538 36.4676V35.8812V30.0062V29.0343L229.425 28.6371L237.8 24.8871L238.827 24.4272L239.556 25.2847L240.935 26.9071L240.11 24.3402L239.716 23.115L240.867 22.5395L247.867 19.0395L248.287 18.8293L248.753 18.8966L259.128 20.3966L260.413 20.5824V21.8812V33.9073L263.508 34.2365L265.178 22.544L265.384 21.1028L266.831 21.2656L276.831 22.3906L277.219 22.4343L277.537 22.6619L285.037 28.0369L286.442 29.0439L285.922 29.5874L286.145 29.4288L287.008 30.0165L298.383 37.7665L298.847 38.0828L298.989 38.6261L300.364 43.8761L300.588 44.7321L299.947 45.3424L298.596 46.6291L299.822 47.563L300.341 47.9581L300.406 48.6069L301.156 56.1069L301.239 56.9394L300.574 57.4477L299.007 58.6462L298.394 73.0415L304.504 70.0284L306.593 49.368L304.916 47.8773L304.413 47.4298V46.7562V42.7562V41.8455L305.221 41.4253L307.538 40.2205V40.1222L303.607 38.9429L302.538 38.6222V37.5062V27.3812V25.8812H304.038H306.065L307.538 24.486V21.0062V20.1748L308.243 19.7342L314.243 15.9842L315.033 15.4906L315.825 15.9794L323.325 20.6044L324.613 21.3985L323.808 22.6794L321.453 26.4252L321.953 27.7562H325.413H326.82L326.91 29.1602L327.535 38.9102L327.618 40.2017L326.352 40.4729L323.32 41.1226L321.735 42.8521L322.113 43.3562L322.413 43.7562V44.2562V48.7562V49.6593L321.615 50.0818L320.251 50.8036L319.761 62.7725L330.675 57.8871L331.618 57.465L332.349 58.1955L337.558 63.4048L337.822 61.8935L334.22 57.1652L333.192 55.8167L334.656 54.9612L351.739 44.9762L353.849 21.6444L351.065 19.273L349.355 17.816L351.356 16.795L382.231 1.04497ZM199.348 257.175L176.512 250.742L171.38 251.974L153.739 293.873L146.518 333.462L146.405 334.079L145.887 334.432L140.732 337.947L128.496 364.62L126.777 376.655L126.65 377.545L125.805 377.852L120.891 379.639L110.003 403.109L108.781 413.124L108.682 413.941L107.94 414.296L102.676 416.813L93.4454 436.732L91.225 443.887L90.8111 445.221L89.4515 444.903L82.1776 443.206L31.5937 447.154L28.3039 449.621L16.7436 482.088L11.2652 510.477L11.166 510.991L10.7686 511.331L9.32645 512.567L-1.04058 542.434L-1.26012 543.067L-1.87755 543.326L-8.99474 546.31L-16.7574 570.083L-22.7409 598.007L-22.8338 598.44L-23.147 598.753L-24.6543 600.261L-31.5838 620.125L-28.8564 621.318L-27.7554 621.8L-27.9854 622.98L-43.4854 702.48L-43.5216 702.665L-43.6027 702.836L-48.2652 712.652L-58.0833 768.805L-10.1365 759.036L-9.87036 758.982L-9.60205 759.025L72.8735 772.106L134.549 759.012L135.361 752.11L131.521 746.06L130.59 744.592L132.179 743.885L137.033 741.728L199.348 257.175ZM-58.6384 771.979L-9.80383 762.03L72.678 775.113L72.9525 775.156L73.2245 775.098L136.224 761.723L137.277 761.5L137.403 760.431L138.403 751.931L138.465 751.402L138.179 750.952L134.986 745.921L139.022 744.127L139.793 743.784L139.901 742.947L202.267 257.997L246.52 270.463L247.979 273.199L242.813 304.196L242.597 305.491L243.853 305.877L262.603 311.627L264.17 312.107L264.51 310.503L267.174 297.911L269.759 295.141L312.164 307.53L310.551 322.279L310.422 323.459L311.54 323.856L330.54 330.606L332.542 331.317V329.193V318.543L336.514 314.373L377.201 325.318L376.047 340.327L375.95 341.586L377.173 341.896L393.923 346.146L395.504 346.547L395.772 344.939L397.448 334.885L400.031 332.118L454.085 346.059L456.358 347.983L451.588 366.824L451.49 367.213L451.599 367.599L456.414 384.695L453.535 389.125L453.292 389.498V389.943V394.693V395.848L454.409 396.143L505.929 409.748L501.665 500.311L504.546 500.961L506.435 496.457L518.554 524.441L516.746 529.638L515.835 532.257L518.526 531.587L614.776 507.587L615.913 507.303V506.131V500.381V499.604L615.278 499.156L611.984 496.83L624.288 464.97L638.212 495.029L635.388 499.592L633.439 502.74L637.029 501.836L745.279 474.586L746.413 474.3V473.131V471.156L747.812 471.514L746.413 469.016V467.381V466.729L745.936 466.285L743.73 464.225L743.07 463.046L744.382 459.487L756.861 429.974L758.127 432.969L769.08 462.673L766.854 466.648L765.144 469.703L766.542 469.345V474.943V476.112L767.676 476.397L875.926 503.647L879.516 504.551L877.568 501.403L874.743 496.84L888.667 466.782L900.972 498.642L897.677 500.967L897.042 501.415V502.193V507.943V509.114L898.179 509.398L994.429 533.398L997.12 534.069L996.209 531.45L994.401 526.252L1006.52 498.268L1008.41 502.773L1011.29 502.122L1006.86 407.982L1058.55 394.331L1059.66 394.036V392.881V388.131V387.686L1059.42 387.314L1056.54 382.884L1061.36 365.788L1061.47 365.402L1061.37 365.013L1056.6 346.171L1058.87 344.248L1112.92 330.306L1115.51 333.074L1117.18 343.128L1117.45 344.736L1119.03 344.335L1135.78 340.085L1137.01 339.775L1136.91 338.516L1135.75 323.507L1176.44 312.561L1180.41 316.731V327.381V329.506L1182.42 328.795L1201.42 322.045L1202.53 321.647L1202.4 320.468L1200.79 305.718L1243.2 293.33L1245.78 296.1L1248.45 308.692L1248.78 310.296L1250.35 309.815L1269.1 304.065L1270.36 303.68L1270.14 302.385L1264.98 271.387L1266.44 268.652L1310.24 256.313L1373.05 744.759L1373.16 745.596L1373.93 745.938L1377.97 747.732L1374.78 752.764L1374.49 753.214L1374.55 753.743L1375.55 762.243L1375.68 763.311L1376.73 763.535L1439.73 776.91L1440 776.967L1440.28 776.924L1522.76 763.842L1572.25 773.924L1575.44 792.139L1578.37 792.245L1580.84 782.343L1596.2 803.269L1598.62 801.494L1581.37 777.994L1579.48 775.419L1578.71 778.517L1577.17 784.658L1575.41 774.568L1609.62 781.537L1609.88 781.59L1610.14 781.551L1634.17 777.935V1084.66L1515.2 1082.47L1515.05 1080L1544.29 1076.63L1601.25 1073.13L1601.07 1070.13L1544.07 1073.63L1544.03 1073.64L1543.99 1073.64L1514.86 1077L1513.04 1047.85L1512.95 1046.44H1511.54H1449.42L1448.29 1032.82L1448.24 1032.2L1447.76 1031.8L1438.7 1024.17L1420.4 891.342L1425.47 887.374L1427.09 886.105L1425.38 884.951L1418.18 880.069L1413.03 845.72L1412.94 845.123L1412.46 844.755L1403.71 838.005L1403.4 837.764L1403.01 837.708L1368.26 832.708L1367.8 832.642L1367.38 832.844L1357.51 837.661L1253.17 828.288L1250.72 820.493L1250.56 819.983L1250.12 819.689L1241.37 813.939L1241.08 813.749L1240.74 813.705L1207.99 809.455L1207.76 809.426L1207.54 809.464L1149.29 819.464L1148.78 819.551L1148.43 819.933L1138.43 830.933L1138 831.407L1138.05 832.046L1148.05 977.296L1148.09 977.96L1148.62 978.372L1154.8 983.229L1153.36 987.738L1153.27 988.039L1153.3 988.354L1156.24 1015.56L1150.8 1023.6L1150.5 1024.05L1150.55 1024.58L1154.9 1070.46L849.985 1073.41L358.06 1068.65L362.406 1022.77L362.457 1022.24L362.155 1021.79L356.713 1013.75L359.654 986.542L359.688 986.228L359.592 985.926L358.158 981.418L364.34 976.561L364.864 976.149L364.909 975.484L374.909 830.234L374.953 829.596L374.523 829.122L364.523 818.122L364.176 817.74L363.667 817.653L305.417 807.653L305.194 807.615L304.97 807.644L272.22 811.894L271.878 811.938L271.589 812.128L262.839 817.878L262.392 818.171L262.232 818.681L259.782 826.477L155.445 835.85L145.571 831.033L145.156 830.831L144.699 830.896L109.949 835.896L109.559 835.953L109.247 836.193L100.497 842.943L100.019 843.312L99.9296 843.909L94.7771 878.258L87.5717 883.139L85.8674 884.294L87.4885 885.562L92.5592 889.531L74.2557 1022.36L65.1968 1029.98L64.72 1030.39L64.6681 1031.01L63.5327 1044.63H1.41296H0.00378418L-0.0841064 1046.04L-2.13097 1078.79L-31.0357 1075.45L-31.0756 1075.45L-31.1157 1075.45L-88.1157 1071.95L-88.2996 1074.94L-31.3394 1078.44L-10.7426 1080.81L-121.212 1082.85V776.124L-97.1853 779.739L-96.9227 779.779L-96.6626 779.726L-61.7964 772.623L-64.2174 786.469L-65.7524 780.329L-66.527 777.23L-68.4168 779.805L-85.6668 803.305L-83.2484 805.08L-67.8883 784.155L-65.4129 794.056L-62.4801 793.951L-58.6384 771.979ZM0.85334 1079.13L20.8718 1081.44L695.111 1074.91L356.398 1071.63L354.766 1071.62L354.92 1069.99L359.369 1023.03L353.921 1014.97L353.613 1014.52L353.672 1013.97L356.638 986.535L354.984 981.336L354.668 980.344L355.486 979.702L361.962 974.613L371.873 830.667L362.65 820.522L305.132 810.648L272.948 814.824L264.934 820.091L262.344 828.331L262.044 829.286L261.047 829.375L155.297 838.875L154.881 838.913L154.505 838.729L144.67 833.931L110.767 838.81L102.807 844.95L97.6464 879.354L97.5488 880.004L97.0043 880.373L90.9585 884.469L95.0874 887.7L95.7667 888.231L95.6489 889.086L77.1489 1023.34L77.0702 1023.91L76.6292 1024.28L67.6061 1031.88L66.4078 1046.26L66.2932 1047.63H64.913H2.82214L0.85334 1079.13ZM1004.86 1074.91L1492.08 1079.63L1511.88 1077.35L1510.13 1049.44H1448.04H1446.66L1446.55 1048.07L1445.35 1033.69L1436.33 1026.09L1435.89 1025.72L1435.81 1025.15L1417.31 890.897L1417.19 890.043L1417.87 889.511L1422 886.28L1415.95 882.184L1415.41 881.815L1415.31 881.165L1410.15 846.762L1402.19 840.621L1368.29 835.743L1358.45 840.541L1358.07 840.724L1357.66 840.686L1251.91 831.186L1250.91 831.097L1250.61 830.142L1248.02 821.902L1240.01 816.636L1207.82 812.459L1150.3 822.334L1141.08 832.478L1150.99 976.425L1157.47 981.513L1158.29 982.156L1157.97 983.147L1156.32 988.346L1159.28 1015.78L1159.34 1016.33L1159.03 1016.78L1153.59 1024.84L1158.04 1071.8L1158.19 1073.43L1156.56 1073.44L1004.86 1074.91ZM1571.7 770.75L1561.22 710.84L1556.56 701.025L1556.48 700.854L1556.44 700.668L1540.94 621.168L1540.71 619.989L1541.81 619.507L1544.54 618.314L1537.61 598.449L1536.1 596.942L1535.79 596.629L1535.7 596.195L1529.71 568.272L1521.95 544.499L1514.83 541.514L1514.22 541.256L1514 540.623L1503.63 510.756L1502.19 509.52L1501.79 509.179L1501.69 508.665L1496.21 480.277L1484.65 447.81L1481.36 445.343L1430.78 441.395L1423.5 443.092L1422.14 443.409L1421.73 442.076L1419.51 434.921L1410.28 415.002L1405.02 412.484L1404.27 412.129L1404.17 411.313L1402.95 401.298L1392.06 377.828L1387.15 376.041L1386.31 375.734L1386.18 374.843L1384.46 362.809L1372.22 336.136L1367.07 332.621L1366.55 332.267L1366.44 331.65L1359.22 292.062L1341.58 250.163L1336.44 248.931L1313.16 255.49L1375.92 743.539L1380.78 745.697L1382.37 746.403L1381.43 747.871L1377.59 753.921L1378.41 760.824L1440.08 773.917L1522.56 760.836L1522.83 760.793L1523.09 760.848L1571.7 770.75ZM1309.85 253.305L1301.68 189.759L1301.65 189.522L1301.69 189.288L1304.75 173.178L1302.38 171.72L1301.67 171.281V170.443V166.657L1300.44 165.338L1300.12 164.99L1300.06 164.518L1296.93 141.393L1296.83 140.657L1297.36 140.132L1298.42 139.071V135.735L1296.32 134.307L1295.78 133.94L1295.68 133.296L1291.18 104.046L1291.04 103.115L1291.82 102.581L1293.17 101.653V99.8097L1289.79 97.8674L1289.15 97.499L1289.06 96.7673L1285.93 73.5173L1285.9 73.3146L1285.93 73.112L1287.41 62.4058L1283.35 60.2706L1282.4 59.7737L1282.56 58.7168L1283.31 53.7799L1281.93 52.5714L1281.5 52.1946L1281.43 51.6267L1279.93 39.5017L1279.84 38.8113L1280.32 38.3001L1281.42 37.1061V32.7894L1274.96 29.8964L1271.44 34.039L1268.79 37.1483V33.0675V29.1925V28.9573L1268.86 28.7335L1269.6 26.4586L1264.17 23.7443L1255.54 24.9912V37.0675V38.4164L1254.2 38.5591L1248.33 39.1841L1246.89 39.3372L1246.68 37.9046L1245.01 26.2208L1236.85 27.1394L1231.07 31.2798L1232.63 32.9057L1233.04 33.3406V33.9425V36.4425V39.3484L1230.67 37.6653L1226.77 34.8948L1216.73 41.7409L1215.72 45.5916L1217.7 47.4813L1218.98 48.6945L1217.58 49.7606L1215.47 51.3655L1214.87 57.3842L1216.33 58.501L1216.89 58.9274L1216.92 59.6287L1217.67 77.2537L1217.77 79.7821L1215.5 78.6628L1206.38 74.1628L1205.63 73.7952L1205.55 72.9684L1203.3 50.7184L1203.22 49.9557L1203.8 49.4464L1205.54 47.8939V45.4782L1203.23 44.2733L1202.42 43.8532V42.9425V40.8175V39.7015L1203.49 39.3808L1207.42 38.2014V30.6925H1206.29H1205.69L1205.26 30.2814L1202.89 28.0314L1202.42 27.5877V26.9425V23.6489L1197.91 20.8331L1192.49 24.1752L1194.44 27.2692L1194.83 27.8984L1194.57 28.5942L1193.45 31.5942L1193.08 32.5675H1192.04H1188.95L1188.5 39.622L1190.73 40.1008L1191.2 40.2011L1191.52 40.5539L1194.27 43.5539L1195.11 44.4716L1194.37 45.4675L1193.54 46.5674V49.6644L1194.87 50.3668L1195.63 50.77L1195.67 51.6311L1196.29 66.8811L1196.39 69.3012L1194.18 68.3116L1182 62.8587L1175.48 69.3782L1173.44 71.4189L1172.94 68.5761L1172.06 63.5761L1171.95 62.9301L1172.35 62.4084L1175.32 58.507L1159.04 48.9875L1158.37 48.5974L1158.3 47.8276L1156.05 22.9526L1155.98 22.1792L1156.57 21.6756L1158.23 20.2577L1130.2 5.9592L1101.34 28.1273L1103.27 29.4577L1103.85 29.8606L1103.91 30.5679L1105.91 54.5679L1105.98 55.3266L1105.4 55.8255L1087.72 71.1626L1090.37 73.8994L1090.79 74.3355V74.9425V85.0675V85.8835L1090.11 86.3269L1087.98 87.7019L1085.67 89.1997V86.4425V80.9563L1078.99 76.0974L1045.03 104.77L1048.21 107.867L1048.67 108.308V108.942V118.442V119.469L1047.71 119.841L1045.46 120.716L1043.62 121.432L1043.42 119.464L1042.74 112.509L1036.82 108.192L1024.58 117.63L1022.17 119.494V116.442V110.692V110.246L1022.41 109.872L1023.47 108.25L1012.61 104.629L993.326 120.619L1006.71 404.917L1056.66 391.726V388.576L1053.66 383.949L1053.28 383.379L1053.47 382.724L1058.36 365.361L1053.46 345.999L1053.23 345.091L1053.94 344.486L1057.19 341.736L1057.46 341.514L1057.79 341.429L1113.04 327.179L1113.9 326.956L1114.51 327.608L1118.01 331.358L1118.32 331.688L1118.39 332.135L1119.87 341.026L1133.82 337.488L1132.67 322.496L1132.57 321.256L1133.77 320.933L1176.52 309.433L1177.38 309.201L1178 309.847L1183 315.097L1183.41 315.531V316.131V325.256L1199.29 319.615L1197.67 304.794L1197.54 303.544L1198.74 303.191L1243.24 290.191L1244.13 289.932L1244.76 290.608L1248.26 294.358L1248.54 294.663L1248.63 295.071L1251.04 306.466L1266.97 301.582L1261.93 271.378L1261.85 270.875L1262.09 270.425L1264.09 266.675L1264.39 266.111L1265.01 265.937L1309.85 253.305ZM1003.89 408.765L916.546 431.831L912.616 432.869L914.93 429.527L918.937 423.738L902.386 388.623L889.441 426.565L893.041 429.165L893.663 429.614V430.381V435.631V436.795L892.535 437.084L771.415 468.097L769.542 469.844V473.773L873.068 499.834L871.767 497.732L871.342 497.045L871.681 496.312L887.431 462.312L888.918 459.103L890.192 462.402L904.192 498.652L904.613 499.743L903.657 500.418L900.042 502.97V506.771L992.465 529.816L991.376 526.685L991.183 526.133L991.416 525.596L1005.17 493.846L1006.56 490.617L1007.9 493.789L1003.89 408.765ZM743.413 470.388L620.42 438.896L619.292 438.607V437.443V432.193V431.426L619.914 430.976L623.514 428.376L610.569 390.434L594.018 425.55L598.026 431.339L600.339 434.681L596.409 433.643L508.896 410.532L505.06 491.978L506.391 488.805L507.789 492.035L521.539 523.785L521.772 524.322L521.58 524.874L520.491 528.005L612.913 504.959V501.158L609.298 498.607L608.342 497.932L608.764 496.841L622.764 460.591L624.038 457.292L625.524 460.501L641.274 494.501L641.614 495.234L641.188 495.921L639.887 498.023L743.413 471.962V470.388ZM506.074 406.684L456.292 393.537V390.387L459.3 385.76L459.67 385.19L459.486 384.536L454.595 367.172L459.496 347.811L459.726 346.903L459.011 346.297L455.761 343.547L455.499 343.326L455.167 343.24L399.917 328.99L399.054 328.767L398.446 329.419L394.946 333.169L394.637 333.5L394.563 333.946L393.081 342.838L379.135 339.299L380.288 324.308L380.383 323.067L379.182 322.744L336.432 311.244L335.571 311.012L334.956 311.658L329.956 316.908L329.542 317.342V317.943V327.068L313.662 321.426L315.283 306.606L315.42 305.355L314.213 305.003L269.713 292.003L268.826 291.744L268.196 292.419L264.696 296.169L264.411 296.474L264.325 296.882L261.914 308.278L245.988 303.394L251.022 273.189L251.106 272.686L250.866 272.237L248.866 268.487L248.565 267.922L247.949 267.749L202.654 254.989L211.276 187.947L211.306 187.711L211.262 187.476L208.204 171.367L210.574 169.909L211.288 169.469V168.631V164.845L212.512 163.527L212.836 163.178L212.899 162.707L216.024 139.582L216.124 138.846L215.599 138.32L214.538 137.26V133.924L216.633 132.495L217.171 132.128L217.271 131.484L221.771 102.234L221.914 101.304L221.138 100.77L219.788 99.8421V97.9984L223.161 96.0561L223.801 95.6877L223.9 94.956L227.025 71.706L227.052 71.5033L227.024 71.3007L225.543 60.5945L229.61 58.4593L230.557 57.9623L230.396 56.9055L229.645 51.9685L231.026 50.76L231.456 50.3832L231.527 49.8153L233.027 37.6903L233.112 36.9999L232.64 36.4887L231.538 35.2947V30.978L237.999 28.0851L241.52 32.2276L244.163 35.3369V31.2562V27.3812V27.146L244.091 26.9221L243.36 24.6472L248.788 21.933L257.413 23.1799V35.2562V36.605L258.754 36.7477L264.629 37.3727L266.068 37.5258L266.273 36.0933L267.942 24.4095L276.107 25.3281L281.884 29.4684L280.329 31.0943L279.913 31.5293V32.1312V34.6312V37.537L282.282 35.8539L286.181 33.0835L296.229 39.9296L297.238 43.7802L295.254 45.6699L293.98 46.8832L295.379 47.9493L297.485 49.5542L298.087 55.5729L296.627 56.6896L296.069 57.116L296.039 57.8174L295.289 75.4424L295.182 77.9708L297.451 76.8515L306.576 72.3515L307.322 71.9839L307.405 71.1571L309.655 48.9071L309.732 48.1444L309.16 47.635L307.413 46.0825V43.6668L309.73 42.462L310.538 42.0418V41.1312V39.0062V37.8901L309.469 37.5694L305.538 36.3901V28.8812H306.663H307.261L307.695 28.4701L310.07 26.2201L310.538 25.7764V25.1312V21.8376L315.043 19.0217L320.463 22.3638L318.518 25.4579L318.123 26.087L318.383 26.7828L319.508 29.7828L319.873 30.7562H320.913H324.006L324.458 37.8106L322.224 38.2895L321.756 38.3897L321.432 38.7426L318.682 41.7426L317.841 42.6602L318.588 43.6562L319.413 44.7561V47.8531L318.086 48.5555L317.324 48.9587L317.289 49.8197L316.664 65.0697L316.565 67.4898L318.776 66.5003L330.958 61.0473L337.477 67.5668L339.518 69.6075L340.016 66.7647L340.891 61.7647L341.004 61.1187L340.606 60.5971L337.634 56.6957L353.92 47.1762L354.587 46.7861L354.657 46.0163L356.907 21.1413L356.977 20.3679L356.386 19.8643L354.721 18.4464L382.751 4.14786L411.615 26.316L409.686 27.6463L409.102 28.0493L409.043 28.7566L407.043 52.7566L406.98 53.5153L407.555 54.0142L425.234 69.3512L422.585 72.088L422.163 72.5242V73.1312V83.2562V84.0722L422.848 84.5155L424.973 85.8905L427.288 87.3884V84.6312V79.145L433.969 74.286L467.93 102.959L464.743 106.055L464.288 106.497V107.131V116.631V117.657L465.244 118.029L467.494 118.904L469.337 119.621L469.531 117.653L470.215 110.697L476.137 106.381L488.372 115.819L490.788 117.683V114.631V108.881V108.434L490.543 108.06L489.483 106.439L500.347 102.818L519.63 118.808L506.074 406.684Z" fill="#312442"/>
</svg>
