<svg width="1513" height="944" viewBox="0 0 1513 944" fill="none" xmlns="http://www.w3.org/2000/svg">
<path stroke="#312442" stroke-width="1" d="M-210.458 804.438L-193.208 780.938L-189.958 793.938L-175.708 712.438L-170.958 702.438L-155.458 622.938L-159.458 621.188L-151.958 599.688L-150.208 597.938L-144.208 569.938L-136.208 545.438L-128.458 542.188L-117.958 511.938L-116.208 510.438L-110.708 481.938L-98.9576 448.938L-94.9576 445.938L-43.7076 441.938L-36.2076 443.688L-33.9576 436.438L-24.4576 415.938L-18.7076 413.188L-17.4576 402.938L-6.20764 378.688L-0.707642 376.688L1.04236 364.438L13.5424 337.188L19.0424 333.438L26.2924 293.688L44.2924 250.938L50.5424 249.438L121.542 269.438L123.542 273.188L118.292 304.688L137.042 310.438L139.792 297.438L143.292 293.688L187.792 306.688L186.042 322.688L205.042 329.438V318.188L210.042 312.938L252.792 324.438L251.542 340.688L268.292 344.938L270.042 334.438L273.542 330.688L328.792 344.938L332.042 347.688L327.042 367.438L332.042 385.188L328.792 390.188V394.938L470.792 432.438L466.292 425.938L484.792 386.688L499.292 429.188L494.792 432.438V437.688L618.792 469.438L615.292 463.188L631.042 425.938L645.792 465.938L642.042 469.438V475.188L750.292 502.438L747.042 497.188L762.792 463.188L776.792 499.438L772.542 502.438V508.188L868.792 532.188L866.792 526.438L880.542 494.688L883.792 502.438L865.792 120.188L886.292 103.188L899.792 107.688L897.667 110.938V116.688L910.792 106.563L918.167 111.938L918.917 119.563L921.167 118.688V109.188L916.792 104.938L952.917 74.4385L961.167 80.4385V86.6885L963.292 85.3135V75.1885L959.542 71.3135L978.417 54.9385L976.417 30.9385L972.792 28.4385L1004.04 4.43848L1034.92 20.1885L1031.54 23.0635L1033.79 47.9385L1051.54 58.3135L1047.54 63.5635L1048.42 68.5635L1055.67 61.3135L1068.79 67.1885L1068.17 51.9385L1066.04 50.8135V46.3135L1067.17 44.8135L1064.42 41.8135L1060.92 41.0635L1061.54 31.3135H1066.04L1067.17 28.3135L1064.42 23.9385L1071.92 19.3135L1077.92 23.0635V27.1885L1080.29 29.4385H1082.92V39.5635L1077.92 41.0635V43.1885L1081.04 44.8135V48.8135L1078.79 50.8135L1081.04 73.0635L1090.17 77.5635L1089.42 59.9385L1087.29 58.3135L1088.04 50.8135L1090.67 48.8135L1088.04 46.3135L1089.42 41.0635L1100.79 33.3135L1105.54 36.6885V34.1885L1102.79 31.3135L1110.29 25.9385L1120.29 24.8135L1122.17 37.9385L1128.04 37.3135V23.9385L1138.42 22.4385L1145.42 25.9385L1144.29 29.4385V33.3135L1148.54 28.3135L1156.92 32.0635V37.9385L1155.42 39.5635L1156.92 51.6885L1158.92 53.4385L1158.04 59.1885L1163.04 61.8135L1161.42 73.5635L1164.54 96.8135L1168.67 99.1885V102.688L1166.67 104.063L1171.17 133.313L1173.92 135.188V139.938L1172.42 141.438L1175.54 164.563L1177.17 166.313V170.688L1180.42 172.688L1177.17 189.813L1248.54 744.813L1254.17 747.313L1250.04 753.813L1251.04 762.313L1314.04 775.688L1396.79 762.563L1483.92 780.313L1509.67 776.438V1086.44L1387.79 1084.19L1385.54 1048.19H1322.04L1320.79 1033.19L1311.29 1025.19L1292.79 890.938L1298.54 886.438L1290.79 881.188L1285.54 846.188L1276.79 839.438L1242.04 834.438L1231.79 839.438L1126.04 829.938L1123.29 821.188L1114.54 815.438L1081.79 811.188L1023.54 821.188L1013.54 832.188L1023.54 977.438L1030.54 982.938L1028.79 988.438L1031.79 1016.19L1026.04 1024.69L1030.54 1072.19L-105.208 1083.19L-157.208 1077.19L-214.208 1073.69M1723.41 802.627L1706.16 779.127L1702.91 792.127L1688.66 710.627L1683.91 700.627L1668.41 621.127L1672.41 619.377L1664.91 597.877L1663.16 596.127L1657.16 568.127L1649.16 543.627L1641.41 540.377L1630.91 510.127L1629.16 508.627L1623.66 480.127L1611.91 447.127L1607.91 444.127L1556.66 440.127L1549.16 441.877L1546.91 434.627L1537.41 414.127L1531.66 411.377L1530.41 401.127L1519.16 376.877L1513.66 374.877L1511.91 362.627L1499.41 335.377L1493.91 331.627L1486.66 291.877L1468.66 249.127L1462.41 247.627L1391.41 267.627L1389.41 271.377L1394.66 302.877L1375.91 308.627L1373.16 295.627L1369.66 291.877L1325.16 304.877L1326.91 320.877L1307.91 327.627V316.377L1302.91 311.127L1260.16 322.627L1261.41 338.877L1244.66 343.127L1242.91 332.627L1239.41 328.877L1184.16 343.127L1180.91 345.877L1185.91 365.627L1180.91 383.377L1184.16 388.377V393.127L1042.16 430.627L1046.66 424.127L1028.16 384.877L1013.66 427.377L1018.16 430.627V435.877L894.163 467.627L897.663 461.377L881.913 424.127L867.163 464.127L870.913 467.627V473.377L761.751 503.01L766.469 496.628L750.163 461.377L736.163 497.627L740.413 500.627V506.377L644.163 530.377L646.163 524.627L632.413 492.877L629.163 500.627L647.163 118.377L626.663 101.377L613.163 105.877L615.288 109.127V114.877L602.163 104.752L594.788 110.127L594.038 117.752L591.788 116.877V107.377L596.163 103.127L560.038 72.6271L551.788 78.6271V84.8771L549.663 83.5021V73.3771L553.413 69.5021L534.538 53.1271L536.538 29.1271L540.163 26.6271L508.913 2.62714L478.038 18.3771L481.413 21.2521L479.163 46.1271L461.413 56.5021L465.413 61.7521L464.538 66.7521L457.288 59.5021L444.163 65.3771L444.788 50.1271L446.913 49.0021V44.5021L445.788 43.0021L448.538 40.0021L452.038 39.2521L451.413 29.5021H446.913L445.788 26.5021L448.538 22.1271L441.038 17.5021L435.038 21.2521V25.3771L432.663 27.6271H430.038V37.7521L435.038 39.2521V41.3771L431.913 43.0021V47.0021L434.163 49.0021L431.913 71.2521L422.788 75.7521L423.538 58.1271L425.663 56.5021L424.913 49.0021L422.288 47.0021L424.913 44.5021L423.538 39.2521L412.163 31.5021L407.413 34.8771V32.3771L410.163 29.5021L402.663 24.1271L392.663 23.0021L390.788 36.1271L384.913 35.5021V22.1271L374.538 20.6271L367.538 24.1271L368.663 27.6271V31.5021L364.413 26.5021L356.038 30.2521V36.1271L357.538 37.7521L356.038 49.8771L354.038 51.6271L354.913 57.3771L349.913 60.0021L351.538 71.7521L348.413 95.0021L344.288 97.3771V100.877L346.288 102.252L341.788 131.502L339.038 133.377V138.127L340.538 139.627L337.413 162.752L335.788 164.502V168.877L332.538 170.877L335.788 188.002L264.413 743.002L258.788 745.502L262.913 752.002L261.913 760.502L198.913 773.877L116.163 760.752L29.038 778.502L3.28796 774.627V1084.63L125.163 1082.38L127.413 1046.38H190.913L192.163 1031.38L201.663 1023.38L220.163 889.127L214.413 884.627L222.163 879.377L227.413 844.377L236.163 837.627L270.913 832.627L281.163 837.627L386.913 828.127L389.663 819.377L398.413 813.627L431.163 809.377L489.413 819.377L499.413 830.377L489.413 975.627L482.413 981.127L484.163 986.627L481.163 1014.38L486.913 1022.88L482.413 1070.38L1618.16 1081.38L1670.16 1075.38L1727.16 1071.88" />
</svg>
