<svg width="1730" height="1080" viewBox="0 0 1730 1080" fill="none" xmlns="http://www.w3.org/2000/svg">
<path fill-rule="evenodd" clip-rule="evenodd" d="M508.231 1.29095L509.075 0.860453L509.827 1.43749L541.077 25.4375L542.711 26.6923L541.015 27.862L537.974 29.9589L536.096 52.4931L554.396 68.3691L555.592 69.4071L554.491 70.5453L551.163 73.9841V77.227L559.156 71.414L560.107 70.7222L561.006 71.481L597.131 101.981L598.396 103.049L597.208 104.203L593.288 108.011V110.054L593.295 109.98L593.361 109.311L593.905 108.915L601.28 103.54L602.188 102.877L603.079 103.564L613.788 111.825V109.574L611.907 106.698L610.843 105.069L612.689 104.454L626.189 99.9541L626.979 99.6906L627.62 100.222L648.12 117.222L648.697 117.7L648.661 118.448L634.007 429.643L647.2 465.42L647.545 466.355L646.816 467.035L643.542 470.09V474.019L734.8 496.992L748.764 460.837L750.039 457.535L751.524 460.747L756.893 472.354L761.431 462.558L762.918 459.349L764.192 462.648L777.526 497.174L869.413 472.23V468.279L866.139 465.224L865.411 464.544L865.756 463.608L878.797 428.242L864.294 120.259L864.259 119.512L864.835 119.034L885.335 102.034L885.976 101.502L886.767 101.765L900.267 106.265L902.113 106.881L901.048 108.509L899.167 111.385V113.637L909.876 105.376L910.767 104.689L911.676 105.351L919.051 110.726L919.594 111.122L919.66 111.792L919.667 111.865V109.823L915.747 106.014L914.559 104.861L915.825 103.792L951.95 73.2923L952.848 72.5336L953.8 73.2254L961.792 79.0383V75.7954L958.464 72.3566L957.363 71.2184L958.559 70.1804L976.859 54.3044L974.981 31.7703L971.941 29.6733L970.245 28.5037L971.879 27.2488L1003.13 3.24883L1003.88 2.67179L1004.72 3.10229L1035.6 18.8523L1037.6 19.8733L1035.89 21.3303L1033.11 23.7017L1035.22 47.0335L1052.3 57.0185L1053.76 57.874L1052.74 59.2225L1049.13 63.9509L1049.4 65.4621L1054.61 60.2528L1055.34 59.5223L1056.28 59.9444L1067.19 64.8298L1066.7 52.8609L1065.34 52.1392L1064.54 51.7166V50.8135V46.3135V45.8135L1064.84 45.4135L1065.22 44.9094L1063.64 43.1799L1060.6 42.5302L1059.34 42.259L1059.42 40.9675L1060.05 31.2175L1060.14 29.8135H1061.54H1065L1065.5 28.4825L1063.15 24.7367L1062.34 23.4558L1063.63 22.6617L1071.13 18.0367L1071.92 17.5479L1072.71 18.0415L1078.71 21.7915L1079.42 22.2321V23.0635V26.5433L1080.89 27.9385H1082.92H1084.42V29.4385V39.5635V40.6795L1083.35 41.0002L1079.42 42.1795V42.2778L1081.73 43.4827L1082.54 43.9028V44.8135V48.8135V49.4871L1082.04 49.9346L1080.36 51.4253L1082.45 72.0857L1088.56 75.0989L1087.95 60.7035L1086.38 59.505L1085.72 58.9968L1085.8 58.1642L1086.55 50.6642L1086.61 50.0155L1087.13 49.6203L1088.36 48.6864L1087.01 47.3997L1086.37 46.7894L1086.59 45.9334L1087.97 40.6834L1088.11 40.1401L1088.57 39.8238L1099.95 32.0738L1100.81 31.4862L1101.03 31.6447L1100.51 31.1012L1101.92 30.0943L1109.42 24.7193L1109.74 24.4916L1110.12 24.4479L1120.12 23.3229L1121.57 23.1601L1121.78 24.6013L1123.45 36.2938L1126.54 35.9646V23.9385V22.6397L1127.83 22.4539L1138.2 20.9539L1138.67 20.8867L1139.09 21.0968L1146.09 24.5968L1147.24 25.1723L1146.85 26.3975L1146.02 28.9644L1147.4 27.342L1148.13 26.4846L1149.16 26.9445L1157.53 30.6945L1158.42 31.0916V32.0635V37.9385V38.525L1158.02 38.9559L1156.99 40.0697L1158.34 50.9364L1159.91 52.3096L1160.52 52.8511L1160.4 53.6641L1159.69 58.3573L1163.74 60.4854L1164.67 60.9752L1164.53 62.019L1162.93 73.5665L1165.93 95.8819L1169.42 97.8885L1170.17 98.3213V99.1885V102.688V103.478L1169.52 103.925L1168.29 104.766L1172.55 132.441L1174.76 133.949L1175.42 134.396V135.188V139.938V140.56L1174.98 140.999L1174 141.974L1176.97 163.891L1178.27 165.293L1178.67 165.724V166.313V169.85L1181.2 171.411L1182.08 171.953L1181.89 172.968L1178.69 189.859L1197.75 338.075L1239.04 327.425L1239.9 327.202L1240.51 327.854L1244.01 331.604L1244.32 331.934L1244.39 332.381L1245.87 341.272L1259.82 337.734L1258.67 322.742L1258.57 321.502L1259.77 321.179L1302.52 309.679L1303.38 309.447L1304 310.093L1309 315.343L1309.41 315.777V316.377V325.502L1325.29 319.861L1323.67 305.04L1323.54 303.79L1324.74 303.437L1369.24 290.437L1370.13 290.178L1370.76 290.854L1374.26 294.604L1374.54 294.909L1374.63 295.317L1377.04 306.712L1392.97 301.828L1387.93 271.624L1387.85 271.121L1388.09 270.671L1390.09 266.921L1390.39 266.357L1391.01 266.183L1462.01 246.183L1462.38 246.077L1462.76 246.169L1469.01 247.669L1469.75 247.846L1470.05 248.545L1488.05 291.295L1488.11 291.446L1488.14 291.608L1495.28 330.741L1500.26 334.138L1500.6 334.373L1500.78 334.752L1513.28 362.002L1513.37 362.2L1513.4 362.415L1515.02 373.775L1519.68 375.467L1520.26 375.68L1520.52 376.246L1531.77 400.496L1531.87 400.711L1531.9 400.946L1533.05 410.379L1538.06 412.774L1538.55 413.007L1538.77 413.496L1548.27 433.996L1548.32 434.087L1548.35 434.183L1550.18 440.099L1556.32 438.666L1556.55 438.614L1556.78 438.632L1608.03 442.632L1608.46 442.666L1608.81 442.927L1612.81 445.927L1613.17 446.198L1613.33 446.624L1625.08 479.624L1625.11 479.731L1625.14 479.843L1630.54 507.829L1631.89 508.988L1632.2 509.252L1632.33 509.635L1642.61 539.253L1649.74 542.244L1650.38 542.509L1650.59 543.162L1658.59 567.662L1658.61 567.736L1658.63 567.813L1664.54 595.38L1665.97 596.816L1666.22 597.059L1666.33 597.383L1673.83 618.883L1674.29 620.195L1673.01 620.751L1670.12 622.02L1685.35 700.154L1690.02 709.983L1690.11 710.168L1690.14 710.369L1703.17 784.904L1704.71 778.763L1705.48 775.665L1707.37 778.24L1724.62 801.74L1722.2 803.515L1706.84 782.589L1704.37 792.491L1701.44 792.385L1687.22 711.087L1682.56 701.271L1682.48 701.1L1682.44 700.914L1666.94 621.414L1666.71 620.235L1667.81 619.753L1670.54 618.56L1663.61 598.695L1662.1 597.188L1661.79 596.875L1661.7 596.441L1655.71 568.518L1647.95 544.745L1640.83 541.76L1640.22 541.502L1640 540.869L1629.63 511.002L1628.19 509.766L1627.79 509.425L1627.69 508.911L1622.21 480.523L1610.65 448.056L1607.36 445.589L1556.78 441.641L1549.5 443.338L1548.14 443.655L1547.73 442.322L1545.51 435.167L1536.28 415.247L1531.02 412.73L1530.27 412.375L1530.17 411.559L1528.95 401.544L1518.06 378.074L1513.15 376.287L1512.31 375.979L1512.18 375.089L1510.46 363.055L1498.22 336.382L1493.07 332.866L1492.55 332.513L1492.44 331.896L1485.22 292.308L1467.57 250.409L1462.44 249.177L1392.44 268.897L1390.98 271.633L1396.14 302.631L1396.36 303.926L1395.1 304.311L1376.35 310.061L1374.78 310.542L1374.45 308.938L1371.78 296.346L1369.2 293.576L1326.79 305.964L1328.4 320.714L1328.53 321.893L1327.42 322.291L1308.42 329.041L1306.41 329.752V327.627V316.977L1302.44 312.807L1261.75 323.752L1262.91 338.762L1263.01 340.021L1261.78 340.331L1245.03 344.581L1243.45 344.982L1243.18 343.374L1241.51 333.32L1238.92 330.552L1198.13 341.073L1249.92 743.785L1254.78 745.943L1256.37 746.649L1255.43 748.117L1251.59 754.167L1252.41 761.07L1314.08 774.163L1396.56 761.082L1396.83 761.039L1397.09 761.094L1483.96 778.791L1509.44 774.955L1511.17 774.696V776.438V1078.84L1618.08 1079.88L1669.99 1073.89L1670.03 1073.88L1670.07 1073.88L1727.07 1070.38L1727.25 1073.37L1670.29 1076.87L1618.33 1082.87L1618.24 1082.88L1618.15 1082.88L1511.17 1081.84V1086.44V1087.97L1509.64 1087.94L1387.76 1085.69L1386.38 1085.66L1386.3 1084.28L1386.07 1080.63L849.985 1075.44L126.662 1082.44L126.66 1082.47L126.574 1083.85L125.191 1083.88L3.31567 1086.13L1.78796 1086.16V1084.63V1083.65L-105.193 1084.69L-105.287 1084.69L-105.38 1084.68L-157.339 1078.68L-214.3 1075.19L-214.116 1072.19L-157.116 1075.69L-157.076 1075.69L-157.036 1075.7L-105.128 1081.69L1.78796 1080.65V774.627V772.884L3.51123 773.144L28.9987 776.979L115.864 759.282L116.13 759.228L116.398 759.271L198.874 772.352L260.549 759.258L261.361 752.356L257.521 746.306L256.59 744.838L258.179 744.131L263.033 741.974L314.372 342.768L274.031 332.364L271.448 335.131L269.772 345.185L269.504 346.793L267.923 346.392L251.173 342.142L249.95 341.832L250.047 340.573L251.201 325.564L210.514 314.619L206.542 318.788V329.438V331.563L204.54 330.852L185.54 324.102L184.422 323.705L184.551 322.525L186.164 307.776L143.759 295.387L141.174 298.157L138.51 310.749L138.17 312.353L136.603 311.873L117.853 306.123L116.597 305.737L116.813 304.442L121.979 273.445L120.52 270.709L50.5121 250.988L45.3803 252.22L27.7386 294.119L20.518 333.708L20.4055 334.325L19.8874 334.678L14.7319 338.193L2.49649 364.866L0.777283 376.901L0.650101 377.791L-0.195023 378.098L-5.10925 379.885L-15.9973 403.355L-17.2187 413.37L-17.3183 414.187L-18.0605 414.542L-23.3236 417.059L-32.5546 436.978L-34.775 444.133L-35.1889 445.466L-36.5485 445.149L-43.8224 443.452L-94.4063 447.4L-97.6961 449.867L-109.256 482.334L-114.735 510.723L-114.834 511.237L-115.231 511.577L-116.674 512.813L-127.041 542.68L-127.26 543.313L-127.878 543.572L-134.995 546.556L-142.757 570.329L-148.741 598.253L-148.834 598.686L-149.147 598.999L-150.654 600.507L-157.584 620.371L-154.856 621.564L-153.755 622.046L-153.985 623.226L-169.485 702.726L-169.522 702.911L-169.603 703.082L-174.265 712.898L-188.48 794.197L-191.413 794.302L-193.888 784.401L-209.248 805.326L-211.667 803.551L-194.417 780.051L-192.527 777.476L-191.752 780.575L-190.217 786.715L-177.185 712.18L-177.15 711.979L-177.063 711.795L-172.394 701.966L-157.16 623.831L-160.059 622.563L-161.331 622.006L-160.874 620.694L-153.374 599.194L-153.261 598.87L-153.018 598.628L-151.582 597.191L-145.674 569.624L-145.658 569.547L-145.634 569.473L-137.634 544.973L-137.421 544.321L-136.788 544.055L-129.655 541.064L-119.375 511.447L-119.242 511.064L-118.934 510.8L-117.581 509.64L-112.18 481.654L-112.159 481.543L-112.121 481.435L-100.371 448.435L-100.219 448.01L-99.8576 447.738L-95.8576 444.738L-95.5089 444.477L-95.0744 444.443L-43.8244 440.443L-43.5929 440.425L-43.3668 440.478L-37.2264 441.91L-35.3902 435.994L-35.3606 435.898L-35.3186 435.808L-25.8186 415.308L-25.5917 414.818L-25.1048 414.585L-20.097 412.19L-18.9466 402.757L-18.918 402.522L-18.8183 402.307L-7.56834 378.057L-7.30603 377.492L-6.72026 377.279L-2.06538 375.586L-0.442566 364.226L-0.411789 364.011L-0.321045 363.813L12.179 336.563L12.3528 336.184L12.6974 335.949L17.6792 332.552L24.8167 293.419L24.8462 293.258L24.9099 293.106L42.9099 250.356L43.2044 249.657L43.9423 249.48L50.1923 247.98L50.5726 247.889L50.9491 247.995L121.949 267.995L122.565 268.168L122.866 268.733L124.866 272.483L125.106 272.932L125.022 273.435L119.988 303.639L135.914 308.524L138.325 297.128L138.411 296.72L138.696 296.415L142.196 292.665L142.826 291.99L143.713 292.249L188.213 305.249L189.42 305.601L189.283 306.852L187.662 321.672L203.542 327.314V318.188V317.588L203.956 317.154L208.956 311.904L209.571 311.258L210.432 311.49L253.182 322.99L254.383 323.313L254.288 324.554L253.135 339.545L267.081 343.084L268.563 334.192L268.637 333.746L268.946 333.415L272.446 329.665L273.054 329.013L273.917 329.236L314.758 339.77L334.27 188.047L331.064 171.157L330.872 170.141L331.752 169.6L334.288 168.039V164.502V163.913L334.689 163.481L335.99 162.08L338.952 140.163L337.977 139.188L337.538 138.748V138.127V133.377V132.584L338.193 132.138L340.405 130.63L344.662 102.955L343.438 102.113L342.788 101.666V100.877V97.3771V96.5099L343.54 96.0772L347.025 94.0706L350.024 71.7552L348.427 60.2076L348.283 59.1638L349.216 58.674L353.269 56.5459L352.555 51.8528L352.431 51.0398L353.05 50.4983L354.62 49.125L355.964 38.2584L354.936 37.1446L354.538 36.7136V36.1271V30.2521V29.2803L355.425 28.8831L363.8 25.1331L364.827 24.6732L365.556 25.5307L366.935 27.1531L366.11 24.5861L365.716 23.361L366.867 22.7855L373.867 19.2855L374.287 19.0753L374.753 19.1426L385.128 20.6426L386.413 20.8284V22.1271V34.1532L389.508 34.4825L391.178 22.79L391.384 21.3488L392.831 21.5115L402.831 22.6365L403.219 22.6802L403.537 22.9079L411.037 28.2829L412.442 29.2898L411.922 29.8334L412.145 29.6748L413.008 30.2625L424.383 38.0125L424.847 38.3288L424.989 38.8721L426.364 44.1221L426.588 44.9781L425.947 45.5883L424.596 46.8751L425.822 47.809L426.341 48.2041L426.406 48.8529L427.156 56.3529L427.239 57.1854L426.574 57.6937L425.007 58.8922L424.394 73.2875L430.504 70.2744L432.593 49.6139L430.916 48.1232L430.413 47.6757V47.0021V43.0021V42.0915L431.221 41.6713L433.538 40.4665V40.3682L429.607 39.1889L428.538 38.8682V37.7521V27.6271V26.1271H430.038H432.065L433.538 24.7319V21.2521V20.4208L434.243 19.9801L440.243 16.2301L441.033 15.7366L441.825 16.2254L449.325 20.8504L450.613 21.6445L449.808 22.9254L447.453 26.6711L447.953 28.0021H451.413H452.82L452.91 29.4062L453.535 39.1562L453.618 40.4477L452.352 40.7188L449.32 41.3686L447.735 43.0981L448.113 43.6021L448.413 44.0021V44.5021V49.0021V49.9053L447.615 50.3278L446.251 51.0496L445.761 63.0185L456.675 58.133L457.618 57.7109L458.349 58.4415L463.558 63.6508L463.822 62.1395L460.22 57.4112L459.192 56.0627L460.656 55.2071L477.739 45.2222L479.849 21.8904L477.065 19.519L475.355 18.062L477.356 17.0409L508.231 1.29095ZM317.3 343.523L265.901 743.193L265.793 744.03L265.022 744.373L260.986 746.167L264.179 751.198L264.465 751.648L264.403 752.177L263.403 760.677L263.277 761.746L262.224 761.969L199.224 775.344L198.953 775.402L198.678 775.359L116.196 762.276L29.3374 779.972L29.0773 780.025L28.8147 779.985L4.78796 776.37V1080.62L123.842 1079.47L125.916 1046.28L126.004 1044.88H127.413H189.533L190.668 1031.25L190.72 1030.63L191.197 1030.23L200.256 1022.6L218.559 889.777L213.489 885.808L211.867 884.54L213.572 883.385L220.777 878.504L225.93 844.155L226.019 843.558L226.497 843.189L235.247 836.439L235.559 836.199L235.949 836.142L270.699 831.142L271.156 831.077L271.571 831.279L281.445 836.096L385.782 826.723L388.232 818.927L388.392 818.417L388.839 818.124L397.589 812.374L397.878 812.184L398.22 812.14L430.97 807.89L431.194 807.861L431.417 807.899L489.667 817.899L490.176 817.986L490.523 818.368L500.523 829.368L500.953 829.842L500.909 830.48L490.909 975.73L490.864 976.395L490.34 976.807L484.158 981.664L485.592 986.172L485.688 986.474L485.654 986.788L482.713 1013.99L488.155 1022.04L488.457 1022.48L488.406 1023.02L484.06 1068.89L849.985 1072.44L1028.9 1070.7L1024.55 1024.83L1024.5 1024.29L1024.8 1023.85L1030.24 1015.8L1027.3 988.6L1027.27 988.285L1027.36 987.984L1028.8 983.475L1022.62 978.618L1022.09 978.206L1022.05 977.541L1012.05 832.291L1012 831.653L1012.43 831.179L1022.43 820.179L1022.78 819.797L1023.29 819.71L1081.54 809.71L1081.76 809.672L1081.99 809.701L1114.74 813.951L1115.08 813.995L1115.37 814.185L1124.12 819.935L1124.56 820.229L1124.72 820.739L1127.17 828.534L1231.51 837.907L1241.38 833.09L1241.8 832.888L1242.26 832.954L1277.01 837.954L1277.4 838.01L1277.71 838.251L1286.46 845.001L1286.94 845.369L1287.03 845.966L1292.18 880.316L1299.38 885.197L1301.09 886.351L1299.47 887.62L1294.4 891.588L1312.7 1024.41L1321.76 1032.04L1322.24 1032.44L1322.29 1033.06L1323.42 1046.69H1385.54H1386.95L1387.04 1048.09L1388.89 1077.66L1508.17 1078.81V778.181L1484.14 781.797L1483.88 781.836L1483.62 781.783L1396.76 764.087L1314.28 777.17L1314 777.213L1313.73 777.156L1250.73 763.781L1249.68 763.557L1249.55 762.489L1248.55 753.989L1248.49 753.46L1248.78 753.01L1251.97 747.978L1247.93 746.184L1247.16 745.842L1247.05 745.005L1195.2 341.828L1184.87 344.494L1182.6 346.417L1187.37 365.259L1187.47 365.648L1187.36 366.034L1182.54 383.13L1185.42 387.56L1185.66 387.932V388.377V393.127V394.282L1184.55 394.577L1042.55 432.077L1038.62 433.115L1040.93 429.773L1044.94 423.984L1028.39 388.869L1015.44 426.811L1019.04 429.411L1019.66 429.86V430.627V435.877V437.041L1018.54 437.33L894.535 469.08L891.144 469.949L892.854 466.894L895.995 461.285L882.008 428.204L881.822 428.709L885.291 502.368L882.409 503.019L880.52 498.514L868.401 526.498L870.209 531.696L871.12 534.315L868.429 533.644L772.179 509.644L771.042 509.36V508.188V502.438V502.042L762.144 504.457L757.981 505.588L760.545 502.118L764.734 496.451L756.891 479.496L748.743 497.086L751.568 501.649L753.516 504.797L749.926 503.893L741.913 501.876V506.377V507.549L740.776 507.833L644.526 531.833L641.835 532.504L642.746 529.884L644.554 524.687L632.435 496.703L630.546 501.207L627.665 500.557L630.982 430.11L630.947 430.016L616.96 463.096L620.101 468.706L621.812 471.76L618.42 470.892L494.42 439.142L493.292 438.853V437.688V432.438V431.672L493.914 431.222L497.514 428.622L484.569 390.68L468.018 425.796L472.026 431.585L474.339 434.927L470.409 433.889L328.409 396.389L327.292 396.094V394.938V390.188V389.744L327.535 389.371L330.414 384.941L325.599 367.845L325.49 367.459L325.588 367.07L330.358 348.228L328.085 346.305L317.3 343.523ZM631.344 422.421L631.138 421.861L629.661 425.354L613.911 462.604L613.625 463.281L613.984 463.921L615.773 467.117L496.292 436.524V433.205L500.171 430.405L501.07 429.755L500.712 428.704L486.212 386.204L485.015 382.697L483.436 386.049L464.936 425.299L464.567 426.081L465.059 426.792L467.245 429.95L330.292 393.783V390.633L333.3 386.006L333.67 385.436L333.486 384.782L328.595 367.418L333.496 348.057L333.726 347.148L333.011 346.543L329.761 343.793L329.499 343.572L329.167 343.486L317.685 340.525L337.276 188.193L337.306 187.957L337.262 187.722L334.204 171.613L336.574 170.155L337.288 169.715V168.877V165.091L338.512 163.773L338.836 163.424L338.899 162.953L342.024 139.828L342.124 139.092L341.599 138.566L340.538 137.506V134.17L342.633 132.741L343.171 132.374L343.271 131.73L347.771 102.48L347.914 101.55L347.138 101.016L345.788 100.088V98.2443L349.161 96.3021L349.801 95.9337L349.9 95.202L353.025 71.952L353.052 71.7492L353.024 71.5466L351.543 60.8404L355.61 58.7052L356.557 58.2083L356.396 57.1515L355.645 52.2145L357.026 51.006L357.456 50.6292L357.527 50.0613L359.027 37.9363L359.112 37.2459L358.64 36.7347L357.538 35.5407V31.224L363.999 28.3311L367.52 32.4736L370.163 35.5829V31.5021V27.6271V27.392L370.091 27.1681L369.36 24.8932L374.788 22.1789L383.413 23.4259V35.5021V36.851L384.754 36.9937L390.629 37.6187L392.068 37.7718L392.273 36.3393L393.942 24.6555L402.107 25.574L407.884 29.7144L406.329 31.3403L405.913 31.7752V32.3771V34.8771V37.783L408.282 36.0999L412.181 33.3294L422.229 40.1755L423.238 44.0262L421.254 45.9159L419.98 47.1292L421.379 48.1953L423.485 49.8001L424.087 55.8189L422.627 56.9356L422.069 57.362L422.039 58.0634L421.289 75.6884L421.182 78.2167L423.451 77.0974L432.576 72.5974L433.322 72.2299L433.405 71.4031L435.655 49.1531L435.732 48.3903L435.16 47.881L433.413 46.3285V43.9128L435.73 42.708L436.538 42.2878V41.3771V39.2521V38.1361L435.469 37.8154L431.538 36.6361V29.1271H432.663H433.261L433.695 28.7161L436.07 26.4661L436.538 26.0223V25.3771V22.0835L441.043 19.2677L446.463 22.6098L444.518 25.7039L444.123 26.333L444.383 27.0288L445.508 30.0288L445.873 31.0021H446.913H450.006L450.458 38.0566L448.224 38.5354L447.756 38.6357L447.432 38.9885L444.682 41.9885L443.841 42.9062L444.588 43.9021L445.413 45.0021V48.099L444.086 48.8015L443.324 49.2047L443.289 50.0657L442.664 65.3157L442.565 67.7358L444.776 66.7462L456.958 61.2933L463.477 67.8128L465.518 69.8535L466.016 67.0107L466.891 62.0107L467.004 61.3647L466.606 60.8431L463.634 56.9416L479.92 47.4221L480.587 47.0321L480.657 46.2623L482.907 21.3873L482.977 20.6139L482.386 20.1103L480.721 18.6923L508.751 4.39384L537.615 26.562L535.686 27.8923L535.102 28.2953L535.043 29.0026L533.043 53.0026L532.98 53.7613L533.555 54.2602L551.234 69.5972L548.585 72.334L548.163 72.7702V73.3771V83.5021V84.3182L548.848 84.7615L550.973 86.1365L553.288 87.6344V84.8771V79.3909L559.969 74.532L593.93 103.205L590.743 106.301L590.288 106.743V107.377V116.877V117.903L591.244 118.275L593.494 119.15L595.337 119.867L595.531 117.899L596.215 110.943L602.137 106.627L614.372 116.065L616.788 117.929V114.877V109.127V108.68L616.543 108.306L615.483 106.685L626.347 103.064L645.63 119.054L631.344 422.421ZM633.645 437.332L631.06 492.224L632.391 489.051L633.789 492.281L647.539 524.031L647.772 524.568L647.58 525.12L646.491 528.251L738.913 505.205V501.404L738.288 500.963L641.676 476.643L640.542 476.358V475.188V469.438V468.787L641.019 468.342L644.04 465.522L633.645 437.332ZM739.562 498.191L747.068 500.08L745.767 497.978L745.342 497.291L745.681 496.558L755.239 475.925L750.287 465.219L737.984 497.076L739.562 498.191ZM758.545 475.926L767.83 495.998L768.203 496.804L767.675 497.519L765.522 500.432L774.615 497.964L762.667 467.028L758.545 475.926ZM778.612 499.987L778.613 499.989L777.657 500.664L774.042 503.216V507.017L866.465 530.062L865.376 526.931L865.183 526.379L865.416 525.842L879.166 494.092L880.565 490.863L881.895 494.035L879.159 435.931L868.915 463.711L871.937 466.531L872.413 466.975V467.627V473.377V474.524L871.306 474.825L778.612 499.987ZM881.46 421.02L881.818 420.05L883.295 423.543L899.045 460.793L899.331 461.469L898.972 462.11L897.182 465.306L1016.66 434.713V431.394L1012.78 428.593L1011.88 427.943L1012.24 426.893L1026.74 384.393L1027.94 380.886L1029.52 384.238L1048.02 423.488L1048.39 424.27L1047.9 424.981L1045.71 428.139L1182.66 391.972V388.822L1179.66 384.195L1179.28 383.625L1179.47 382.97L1184.36 365.606L1179.46 346.245L1179.23 345.337L1179.94 344.732L1183.19 341.982L1183.46 341.76L1183.79 341.675L1194.82 338.83L1175.68 190.005L1175.65 189.768L1175.69 189.534L1178.75 173.424L1176.38 171.966L1175.67 171.527V170.688V166.903L1174.44 165.584L1174.12 165.236L1174.06 164.764L1170.93 141.639L1170.83 140.903L1171.36 140.378L1172.42 139.317V135.981L1170.32 134.553L1169.78 134.186L1169.68 133.542L1165.18 104.292L1165.04 103.361L1165.82 102.827L1167.17 101.899V100.056L1163.79 98.1134L1163.15 97.745L1163.06 97.0133L1159.93 73.7633L1159.9 73.5606L1159.93 73.358L1161.41 62.6518L1157.35 60.5166L1156.4 60.0197L1156.56 58.9628L1157.31 54.0259L1155.93 52.8173L1155.5 52.4405L1155.43 51.8726L1153.93 39.7476L1153.84 39.0572L1154.32 38.5461L1155.42 37.352V33.0354L1148.96 30.1424L1145.44 34.285L1142.79 37.3943V33.3135V29.4385V29.2033L1142.86 28.9795L1143.6 26.7046L1138.17 23.9903L1129.54 25.2372V37.3135V38.6624L1128.2 38.8051L1122.33 39.4301L1120.89 39.5831L1120.68 38.1506L1119.01 26.4668L1110.85 27.3854L1105.07 31.5258L1106.63 33.1516L1107.04 33.5866V34.1885V36.6885V39.5943L1104.67 37.9112L1100.77 35.1408L1090.73 41.9869L1089.72 45.8376L1091.7 47.7273L1092.98 48.9405L1091.58 50.0066L1089.47 51.6115L1088.87 57.6302L1090.33 58.7469L1090.89 59.1734L1090.92 59.8747L1091.67 77.4997L1091.77 80.0281L1089.5 78.9088L1080.38 74.4088L1079.63 74.0412L1079.55 73.2144L1077.3 50.9644L1077.22 50.2017L1077.8 49.6924L1079.54 48.1398V45.7242L1077.23 44.5193L1076.42 44.0992V43.1885V41.0635V39.9474L1077.49 39.6267L1081.42 38.4474V30.9385H1080.29H1079.69L1079.26 30.5274L1076.89 28.2774L1076.42 27.8337V27.1885V23.8949L1071.91 21.0791L1066.49 24.4212L1068.44 27.5152L1068.83 28.1444L1068.57 28.8402L1067.45 31.8402L1067.08 32.8135H1066.04H1062.95L1062.5 39.8679L1064.73 40.3468L1065.2 40.4471L1065.52 40.7999L1068.27 43.7999L1069.11 44.7176L1068.37 45.7135L1067.54 46.8134V49.9104L1068.87 50.6128L1069.63 51.016L1069.67 51.8771L1070.29 67.1271L1070.39 69.5472L1068.18 68.5576L1056 63.1047L1049.48 69.6241L1047.44 71.6648L1046.94 68.822L1046.06 63.822L1045.95 63.1761L1046.35 62.6544L1049.32 58.753L1033.04 49.2335L1032.37 48.8434L1032.3 48.0736L1030.05 23.1986L1029.98 22.4252L1030.57 21.9216L1032.23 20.5037L1004.2 6.20518L975.34 28.3733L977.269 29.7037L977.853 30.1066L977.912 30.8139L979.912 54.8139L979.975 55.5726L979.4 56.0715L961.722 71.4085L964.37 74.1453L964.792 74.5815V75.1885V85.3135V86.1295L964.107 86.5728L961.982 87.9478L959.667 89.4457V86.6885V81.2023L952.986 76.3434L919.025 105.016L922.213 108.113L922.667 108.554V109.188V118.688V119.715L921.711 120.086L919.461 120.961L917.618 121.678L917.425 119.71L916.74 112.755L910.818 108.438L898.584 117.876L896.167 119.74V116.688V110.938V110.492L896.412 110.118L897.472 108.496L886.609 104.875L867.326 120.865L881.46 421.02ZM1508.17 1081.81L1389.07 1080.66L1389.2 1082.71L1508.17 1084.91V1081.81ZM1385.88 1077.63L1384.13 1049.69H1322.04H1320.66L1320.55 1048.31L1319.35 1033.93L1310.33 1026.34L1309.89 1025.96L1309.81 1025.39L1291.31 891.143L1291.19 890.289L1291.87 889.757L1296 886.526L1289.95 882.43L1289.41 882.061L1289.31 881.411L1284.15 847.008L1276.19 840.867L1242.29 835.989L1232.45 840.787L1232.07 840.97L1231.66 840.932L1125.91 831.432L1124.91 831.343L1124.61 830.388L1122.02 822.148L1114.01 816.882L1081.82 812.705L1024.3 822.58L1015.08 832.724L1024.99 976.671L1031.47 981.759L1032.29 982.402L1031.97 983.393L1030.32 988.592L1033.28 1016.03L1033.34 1016.57L1033.03 1017.03L1027.59 1025.08L1032.04 1072.05L1032.19 1073.67L1030.56 1073.69L1004.86 1073.94L1385.88 1077.63ZM695.111 1073.94L482.398 1071.88L480.766 1071.86L480.92 1070.24L485.369 1023.27L479.921 1015.22L479.613 1014.76L479.672 1014.22L482.638 986.781L480.984 981.582L480.668 980.59L481.486 979.948L487.962 974.859L497.873 830.913L488.65 820.768L431.132 810.894L398.948 815.07L390.934 820.337L388.344 828.577L388.044 829.532L387.047 829.621L281.297 839.121L280.881 839.159L280.505 838.975L270.67 834.177L236.767 839.056L228.807 845.196L223.646 879.6L223.549 880.25L223.004 880.619L216.958 884.715L221.087 887.946L221.767 888.478L221.649 889.332L203.149 1023.58L203.07 1024.15L202.629 1024.52L193.606 1032.12L192.408 1046.5L192.293 1047.88H190.913H128.822L126.849 1079.44L695.111 1073.94Z" fill="#312442"/>
</svg>
