<svg width="48" height="48" viewBox="0 0 48 48" fill="none" xmlns="http://www.w3.org/2000/svg">
<path fill-rule="evenodd" clip-rule="evenodd" d="M20.3821 30.7061H8.28394L0.348907 0.268555H8.19082L17.9729 7.34643L14.1526 19.0549L24.154 11.8186L34.1554 19.0549L30.3351 7.34643L40.1181 0.268555H47.96L40.0249 30.7061H27.9268L24.154 19.144L20.3821 30.7061Z" fill="#731FE0" stroke="#731FE0" stroke-width="0.000230708" stroke-miterlimit="1.5" stroke-linecap="round" stroke-linejoin="round"/>
<path d="M6.80572 47.1932V37.4518H11.3703C12.0475 37.4518 12.6506 37.5863 13.1794 37.8554C13.7082 38.1244 14.1211 38.4909 14.418 38.9547C14.7149 39.4186 14.8633 39.9521 14.8633 40.5551C14.8633 41.2324 14.7149 41.8262 14.418 42.3364C14.1211 42.8467 13.7082 43.2456 13.1794 43.5332C12.6506 43.8116 12.0475 43.9507 11.3703 43.9507H9.61682V47.1932H6.80572ZM11.913 47.1932L9.43591 42.7957L12.5114 42.4478L15.2669 47.1932H11.913ZM9.61682 41.8633H10.8971C11.1291 41.8633 11.3193 41.8215 11.4677 41.738C11.6254 41.6452 11.7414 41.52 11.8156 41.3623C11.8991 41.2046 11.9409 41.0144 11.9409 40.7917C11.9409 40.5876 11.8991 40.416 11.8156 40.2768C11.7414 40.1284 11.6208 40.017 11.4538 39.9428C11.2961 39.8593 11.092 39.8176 10.8415 39.8176H9.61682V41.8633ZM18.6138 47.3185C17.9922 47.3185 17.4401 47.1561 16.9577 46.8314C16.4753 46.4974 16.0949 46.0428 15.8166 45.4676C15.5382 44.8831 15.3991 44.2151 15.3991 43.4637C15.3991 42.7029 15.5336 42.0349 15.8026 41.4597C16.081 40.8752 16.4614 40.4206 16.9438 40.0959C17.4355 39.7619 18.0014 39.5949 18.6416 39.5949C18.9756 39.5949 19.2817 39.6413 19.5601 39.7341C19.8384 39.8268 20.0843 39.9567 20.2976 40.1237C20.511 40.2907 20.6966 40.4855 20.8543 40.7082C21.012 40.9216 21.1465 41.1535 21.2579 41.404L20.6873 41.3901V39.748H23.4567V47.1932H20.6177V45.3702L21.2439 45.4259C21.1512 45.6949 21.0213 45.9454 20.8543 46.1773C20.6966 46.4093 20.5064 46.6087 20.2837 46.7757C20.0611 46.9427 19.8106 47.0773 19.5322 47.1793C19.2539 47.2721 18.9477 47.3185 18.6138 47.3185ZM19.4209 45.0223C19.69 45.0223 19.9173 44.962 20.1028 44.8414C20.2976 44.7208 20.4414 44.5445 20.5342 44.3125C20.6363 44.0806 20.6873 43.7976 20.6873 43.4637C20.6873 43.1297 20.6363 42.8467 20.5342 42.6148C20.4414 42.3735 20.2976 42.1926 20.1028 42.072C19.9173 41.9514 19.69 41.8911 19.4209 41.8911C19.1519 41.8911 18.9246 41.9514 18.739 42.072C18.5534 42.1926 18.4096 42.3735 18.3076 42.6148C18.2148 42.8467 18.1684 43.1297 18.1684 43.4637C18.1684 43.7976 18.2148 44.0806 18.3076 44.3125C18.4096 44.5445 18.5534 44.7208 18.739 44.8414C18.9246 44.962 19.1519 45.0223 19.4209 45.0223ZM25.1226 47.1932V39.748H27.7389L27.878 41.2509L27.2796 41.4179C27.3817 41.0654 27.5626 40.7546 27.8224 40.4855C28.0914 40.2072 28.4115 39.9892 28.7826 39.8315C29.1537 39.6738 29.548 39.5949 29.9655 39.5949C30.5221 39.5949 30.9953 39.7109 31.385 39.9428C31.7746 40.1747 32.0669 40.518 32.2617 40.9726C32.4658 41.4179 32.5678 41.9607 32.5678 42.6008V47.1932H29.7428V42.8374C29.7428 42.6333 29.7104 42.4617 29.6454 42.3225C29.5805 42.1833 29.4831 42.0767 29.3532 42.0024C29.2233 41.9282 29.0702 41.8911 28.8939 41.8911C28.7548 41.8911 28.6249 41.9143 28.5043 41.9607C28.3929 41.9978 28.2955 42.0581 28.212 42.1416C28.1285 42.2251 28.0636 42.3179 28.0172 42.4199C27.9708 42.522 27.9476 42.6379 27.9476 42.7678V47.1932H26.5421C26.1895 47.1932 25.8926 47.1932 25.6514 47.1932C25.4195 47.1932 25.2432 47.1932 25.1226 47.1932ZM36.8685 45.1058L35.4769 43.3523L38.9143 39.748H42.5882L36.8685 45.1058ZM34.0992 47.1932V36.8951H36.9242V47.1932H34.0992ZM39.1647 47.1932L36.6876 43.7002L38.6638 42.2808L42.3933 47.1932H39.1647Z" fill="#1B0736"/>
</svg>
